<svg id="jeg-icon-svg" data-name="Jeg Icon Tiktok" xmlns="http://www.w3.org/2000/svg" viewBox="0 0 306.45 350"><path d="M149,129.23V187.7c-11,1.28-21.93,1.42-32.25,4-18.18,4.51-29.08,17.92-32.5,35.43-3.93,20.16,1,38.73,18.47,51.95,15.9,12,32.74,13.53,51.13,5.42,23.13-10.19,31.67-29,31.77-52.44.3-72.27.11-144.53.11-216.8V0h57.85c6,50.07,35.76,77.66,85.33,85.25v56.66c-29.89,3.23-55.39-8.72-81.34-23.71-.49,4.24-1.09,7.23-1.14,10.23-.72,40.55-.49,81.13-2.31,121.62-1.28,28.3-14.58,52-35.6,70.76-23.66,21.09-51.89,30.77-83.52,29-30.12-1.71-55-15.29-74.63-37.65-22.3-25.38-30.9-56-27-89,3.38-28.73,18-52.72,40.53-70.92C88.28,132.48,116.43,124.68,149,129.23Z" transform="translate(-22.47 0)"/></svg>