<svg width="53" height="32" viewBox="0 0 53 32" fill="none" xmlns="http://www.w3.org/2000/svg">
<path d="M26.5 9.6C28.4168 9.6 30.2551 10.2743 31.6105 11.4745C32.9658 12.6747 33.7273 14.3026 33.7273 16C33.7273 17.6974 32.9658 19.3253 31.6105 20.5255C30.2551 21.7257 28.4168 22.4 26.5 22.4C24.5832 22.4 22.7449 21.7257 21.3895 20.5255C20.0342 19.3253 19.2727 17.6974 19.2727 16C19.2727 14.3026 20.0342 12.6747 21.3895 11.4745C22.7449 10.2743 24.5832 9.6 26.5 9.6ZM26.5 0C38.5455 0 48.8323 6.63467 53 16C48.8323 25.3653 38.5455 32 26.5 32C14.4545 32 4.16773 25.3653 0 16C4.16773 6.63467 14.4545 0 26.5 0ZM5.25182 16C7.19898 19.5207 10.2225 22.4869 13.9787 24.5616C17.7349 26.6363 22.073 27.7362 26.5 27.7362C30.927 27.7362 35.2651 26.6363 39.0213 24.5616C42.7775 22.4869 45.801 19.5207 47.7482 16C45.801 12.4793 42.7775 9.51307 39.0213 7.43839C35.2651 5.36371 30.927 4.26385 26.5 4.26385C22.073 4.26385 17.7349 5.36371 13.9787 7.43839C10.2225 9.51307 7.19898 12.4793 5.25182 16Z" fill="black"/>
</svg>
