<svg width="19" height="30" viewBox="0 0 19 30" fill="none" xmlns="http://www.w3.org/2000/svg">
<path fill-rule="evenodd" clip-rule="evenodd" d="M6.03846 2.43333V1.14444C6.03846 0.786978 6.34946 0.5 6.73077 0.5H12.2692C12.6532 0.5 12.9615 0.786978 12.9615 1.14444V2.43333H15.0385C16.9477 2.43333 18.5 3.8783 18.5 5.65556V26.2778C18.5 28.055 16.9477 29.5 15.0385 29.5H3.96154C2.05228 29.5 0.5 28.055 0.5 26.2778L0.5 5.65556C0.5 3.8783 2.05228 2.43333 3.96154 2.43333H6.03846ZM9.5 16.6111H12.2692L8.80769 9.52222L9.5 15.3222H6.73077L10.1923 22.4111L9.5 16.6111Z" fill="#1B5ED9"/>
</svg>
