<svg width="25" height="30" viewBox="0 0 25 30" fill="none" xmlns="http://www.w3.org/2000/svg">
<path fill-rule="evenodd" clip-rule="evenodd" d="M23.1225 4.51736L13.495 0.238623C12.784 -0.0777098 11.9725 -0.0777098 11.2614 0.238623L1.63393 4.51736C0.639542 4.95885 0 5.94361 0 7.03152V13.4957C0 24.2648 8.85593 29.2931 12.3782 30C15.9005 29.2931 24.7564 24.2648 24.7564 13.4957V7.03152C24.7564 5.94498 24.1169 4.95885 23.1225 4.51736ZM13.7536 22.4355C13.7536 22.8151 13.4455 23.1232 13.0659 23.1232H11.6905C11.3109 23.1232 11.0029 22.8151 11.0029 22.4355V21.0602C11.0029 20.6806 11.3109 20.3725 11.6905 20.3725H13.0659C13.4455 20.3725 13.7536 20.6806 13.7536 21.0602V22.4355ZM13.0659 17.6218C13.4455 17.6218 13.7536 17.3137 13.7536 16.9341V7.30659C13.7536 6.92699 13.4455 6.61891 13.0659 6.61891H11.6905C11.3109 6.61891 11.0029 6.92699 11.0029 7.30659V16.9341C11.0029 17.3137 11.3109 17.6218 11.6905 17.6218H13.0659Z" fill="#FCFBF7"/>
</svg>
