<svg width="29" height="29" viewBox="0 0 29 29" fill="none" xmlns="http://www.w3.org/2000/svg">
<path fill-rule="evenodd" clip-rule="evenodd" d="M0 14.5C0 6.50437 6.50492 0 14.5 0C22.4951 0 29 6.50437 29 14.5C29 22.4956 22.4951 29 14.5 29C6.50492 29 0 22.4956 0 14.5ZM13.6607 19.7027L22.5838 9.66425C22.9931 9.2036 22.9513 8.49867 22.4906 8.08877C22.0305 7.67942 21.3245 7.72069 20.9163 8.18135L12.6964 17.4284L7.94656 13.6289C7.46583 13.2441 6.76313 13.3222 6.37888 13.8034C5.99408 14.2847 6.07215 14.9869 6.55288 15.3711L12.1298 19.8327C12.3356 19.9966 12.5815 20.0769 12.8264 20.0769C13.1348 20.0769 13.4409 19.9498 13.6607 19.7027Z" fill="#1B5ED9"/>
</svg>
